<svg xmlns="http://www.w3.org/2000/svg" viewBox="0 0 560 460" fill="none" aria-hidden="true">
  <!-- Open protective contour -->
  <path d="M80 120C80 80 120 40 180 40H380C440 40 480 80 480 120V280C480 340 420 380 360 380H200C140 380 80 340 80 280V120Z" stroke="#123847" stroke-width="3" stroke-linecap="round" stroke-linejoin="round" fill="none"/>
  <path d="M80 120C80 60 40 20 20 60" stroke="#123847" stroke-width="3" stroke-linecap="round" fill="none"/>
  <path d="M480 120C480 60 520 20 540 60" stroke="#123847" stroke-width="3" stroke-linecap="round" fill="none"/>

  <!-- Sun accent -->
  <circle cx="470" cy="70" r="18" fill="#E6AE52"/>

  <!-- House -->
  <path d="M120 280L180 220L240 280V340H120V280Z" fill="#FFFFFF" stroke="#123847" stroke-width="2.5" stroke-linejoin="round"/>
  <rect x="155" y="300" width="50" height="40" fill="#123847" rx="2"/>
  <rect x="130" y="250" width="30" height="25" fill="#89D7DE" stroke="#123847" stroke-width="1.5"/>

  <!-- Office building -->
  <rect x="320" y="180" width="100" height="160" fill="#FFFFFF" stroke="#123847" stroke-width="2.5" rx="4"/>
  <rect x="340" y="200" width="20" height="20" fill="#89D7DE" stroke="#123847" stroke-width="1"/>
  <rect x="380" y="200" width="20" height="20" fill="#89D7DE" stroke="#123847" stroke-width="1"/>
  <rect x="340" y="240" width="20" height="20" fill="#89D7DE" stroke="#123847" stroke-width="1"/>
  <rect x="380" y="240" width="20" height="20" fill="#89D7DE" stroke="#123847" stroke-width="1"/>
  <rect x="340" y="280" width="20" height="20" fill="#89D7DE" stroke="#123847" stroke-width="1"/>
  <rect x="380" y="280" width="20" height="20" fill="#89D7DE" stroke="#123847" stroke-width="1"/>

  <!-- Car -->
  <path d="M200 360H340C360 360 370 350 370 335V320H170V335C170 350 180 360 200 360Z" fill="#123847"/>
  <rect x="210" y="310" width="120" height="25" rx="8" fill="#123847"/>
  <rect x="230" y="315" width="35" height="18" rx="3" fill="#89D7DE"/>
  <rect x="305" y="315" width="35" height="18" rx="3" fill="#89D7DE"/>
  <circle cx="210" cy="360" r="14" fill="#123847" stroke="#FFFFFF" stroke-width="2"/>
  <circle cx="330" cy="360" r="14" fill="#123847" stroke="#FFFFFF" stroke-width="2"/>

  <!-- Ground line -->
  <path d="M100 374H460" stroke="#123847" stroke-width="2.5" stroke-linecap="round"/>
</svg>
